M48
;GenerationSoftware,Autodesk,EAGLE,9.2.2*%
;CreationDate,2018-11-14T10:31:14Z*%
FMAT,2
ICI,OFF
METRIC,TZ,000.000
T9C0.350
T8C0.381
T7C0.813
T6C0.900
T5C0.914
T4C1.016
T3C1.200
T2C1.499
T1C3.302
%
G90
M71
T1
X90170Y54610
X3810Y54610
X90170Y3810
X3810Y3810
T2
X18745Y8160
X9220Y8160
T3
X50454Y52923
X53954Y52923
X57454Y52923
X60954Y52923
X32131Y7338
X28631Y7338
X25131Y7338
X36424Y52923
X39924Y52923
X43424Y52923
X56671Y7338
X53171Y7338
X35671Y7338
X46171Y7338
X8454Y52923
X11954Y52923
X15454Y52923
X18954Y52923
X22540Y52923
X26040Y52923
X29540Y52923
X33040Y52923
X89124Y34274
X89124Y30774
X89124Y27274
X89124Y23774
X39171Y7338
X42671Y7338
X46954Y52923
X49671Y7338
T4
X86360Y44450
X83820Y22860
X81280Y31750
X86360Y8890
X83820Y8890
X9973Y19008
X12513Y19008
X15053Y19008
X17593Y19008
X20133Y19008
X22673Y19008
X25213Y19008
X27753Y19008
X30293Y19008
X32833Y19008
X35373Y19008
X37913Y19008
X40453Y19008
X42993Y19008
X45533Y19008
X48073Y19008
X50613Y19008
X53153Y19008
X55693Y19008
X55693Y44408
X53153Y44408
X50613Y44408
X48073Y44408
X45533Y44408
X42993Y44408
X40453Y44408
X37913Y44408
X35373Y44408
X32833Y44408
X30293Y44408
X27753Y44408
X25213Y44408
X22673Y44408
X20133Y44408
X17593Y44408
X15053Y44408
X12513Y44408
X9973Y44408
X88900Y8890
X88900Y11430
X86360Y13970
X83820Y13970
X73751Y34413
X78740Y44450
X86360Y39370
X81280Y44450
X73660Y44450
X78737Y31692
X73722Y41986
X73751Y22983
X73751Y19173
X73751Y30603
X76200Y44450
X83820Y41910
X73660Y39370
X88900Y41910
X76154Y41929
X86360Y46990
X71120Y5080
X71120Y8890
X83820Y39370
X83820Y44450
X74930Y5080
X74930Y8890
X78718Y49496
X81280Y34290
X78740Y46990
X88900Y39370
X86374Y49422
X83820Y46990
X81280Y46990
X83811Y49513
X81283Y49496
X83820Y11430
X73660Y46990
X76200Y46990
X78740Y36830
X78740Y34290
X76172Y49564
X81319Y41887
X81280Y39370
X81280Y36830
X78740Y41910
X88900Y46990
X88900Y44450
X73660Y49530
X78659Y5142
X78740Y8890
X88885Y49494
X86335Y41957
X76200Y39370
X78740Y39370
X86360Y11430
X83820Y26670
X83820Y30480
X83820Y34290
X71120Y12700
X74930Y12700
X78740Y12700
X73751Y26793
X81280Y54610
X83820Y54610
X78740Y29210
X81280Y29210
X78740Y26670
X78740Y24130
X81280Y24130
X76200Y54610
X73660Y54610
X78740Y54610
X78740Y21590
X81280Y26670
X88900Y16510
X88900Y13970
X88900Y19050
X86360Y16510
X86360Y19050
X83820Y16510
X83820Y19050
X81280Y21590
X78740Y19050
X81280Y19050
T5
X64262Y6350
X64262Y8890
X64262Y11430
T6
X11430Y30226
X19050Y30226
X19050Y37846
X11430Y37846
X11430Y32766
X19050Y32766
X19050Y35306
X11430Y35306
X66084Y46057
X66084Y41057
T7
X70010Y35807
X70010Y33267
X70010Y30727
X70010Y28187
X70010Y25647
X70010Y23107
X70010Y20567
X70010Y18027
X62390Y18027
X62390Y20567
X62390Y23107
X62390Y25647
X62390Y28187
X62390Y30727
X62390Y33267
X62390Y35807
T8
X45720Y40640
X35560Y21590
X53340Y40640
X20320Y22860
X15240Y22860
X16510Y7620
X7620Y2540
X48260Y12700
X31750Y35560
X49530Y34290
X57150Y39370
X8890Y55880
X27940Y55880
X26670Y48260
X64770Y27940
X38100Y40640
X29210Y40640
T9
X40748Y37681
X45714Y27749
X43815Y27749
X16796Y30524
X30524Y28772
X58274Y24975
X37389Y30670
X34468Y25997
X56229Y23222
X66891Y20009
X42793Y33299
X59442Y36074
X33445Y34176
X6572Y37681
X8617Y41916
X33884Y33299
X35928Y33299
X38703Y33299
X66891Y28873
X45568Y33153
M30