G04 EAGLE Gerber RS-274X export*
G75*
%MOMM*%
%FSLAX34Y34*%
%LPD*%
%IN*%
%IPPOS*%
%AMOC8*
5,1,8,0,0,1.08239X$1,22.5*%
G01*
%ADD10C,0.254000*%


D10*
X0Y25400D02*
X97Y23186D01*
X386Y20989D01*
X865Y18826D01*
X1532Y16713D01*
X2380Y14666D01*
X3403Y12700D01*
X4594Y10831D01*
X5942Y9073D01*
X7440Y7440D01*
X9073Y5942D01*
X10831Y4594D01*
X12700Y3403D01*
X14666Y2380D01*
X16713Y1532D01*
X18826Y865D01*
X20989Y386D01*
X23186Y97D01*
X25400Y0D01*
X914400Y0D01*
X916614Y97D01*
X918811Y386D01*
X920974Y865D01*
X923087Y1532D01*
X925135Y2380D01*
X927100Y3403D01*
X928969Y4594D01*
X930727Y5942D01*
X932361Y7440D01*
X933858Y9073D01*
X935206Y10831D01*
X936397Y12700D01*
X937420Y14666D01*
X938268Y16713D01*
X938935Y18826D01*
X939414Y20989D01*
X939703Y23186D01*
X939800Y25400D01*
X939800Y558800D01*
X939703Y561014D01*
X939414Y563211D01*
X938935Y565374D01*
X938268Y567487D01*
X937420Y569535D01*
X936397Y571500D01*
X935206Y573369D01*
X933858Y575127D01*
X932361Y576761D01*
X930727Y578258D01*
X928969Y579606D01*
X927100Y580797D01*
X925135Y581820D01*
X923087Y582668D01*
X920974Y583335D01*
X918811Y583814D01*
X916614Y584103D01*
X914400Y584200D01*
X25400Y584200D01*
X23186Y584103D01*
X20989Y583814D01*
X18826Y583335D01*
X16713Y582668D01*
X14666Y581820D01*
X12700Y580797D01*
X10831Y579606D01*
X9073Y578258D01*
X7440Y576761D01*
X5942Y575127D01*
X4594Y573369D01*
X3403Y571500D01*
X2380Y569535D01*
X1532Y567487D01*
X865Y565374D01*
X386Y563211D01*
X97Y561014D01*
X0Y558800D01*
X0Y25400D01*
X918210Y545560D02*
X918139Y544481D01*
X917998Y543409D01*
X917787Y542349D01*
X917508Y541305D01*
X917160Y540281D01*
X916746Y539283D01*
X916268Y538313D01*
X915728Y537377D01*
X915127Y536478D01*
X914469Y535621D01*
X913757Y534808D01*
X912992Y534044D01*
X912179Y533331D01*
X911322Y532673D01*
X910423Y532072D01*
X909487Y531532D01*
X908517Y531054D01*
X907519Y530640D01*
X906495Y530292D01*
X905451Y530013D01*
X904391Y529802D01*
X903319Y529661D01*
X902240Y529590D01*
X901160Y529590D01*
X900081Y529661D01*
X899009Y529802D01*
X897949Y530013D01*
X896905Y530292D01*
X895881Y530640D01*
X894883Y531054D01*
X893913Y531532D01*
X892977Y532072D01*
X892078Y532673D01*
X891221Y533331D01*
X890408Y534044D01*
X889644Y534808D01*
X888931Y535621D01*
X888273Y536478D01*
X887672Y537377D01*
X887132Y538313D01*
X886654Y539283D01*
X886240Y540281D01*
X885892Y541305D01*
X885613Y542349D01*
X885402Y543409D01*
X885261Y544481D01*
X885190Y545560D01*
X885190Y546640D01*
X885261Y547719D01*
X885402Y548791D01*
X885613Y549851D01*
X885892Y550895D01*
X886240Y551919D01*
X886654Y552917D01*
X887132Y553887D01*
X887672Y554823D01*
X888273Y555722D01*
X888931Y556579D01*
X889644Y557392D01*
X890408Y558157D01*
X891221Y558869D01*
X892078Y559527D01*
X892977Y560128D01*
X893913Y560668D01*
X894883Y561146D01*
X895881Y561560D01*
X896905Y561908D01*
X897949Y562187D01*
X899009Y562398D01*
X900081Y562539D01*
X901160Y562610D01*
X902240Y562610D01*
X903319Y562539D01*
X904391Y562398D01*
X905451Y562187D01*
X906495Y561908D01*
X907519Y561560D01*
X908517Y561146D01*
X909487Y560668D01*
X910423Y560128D01*
X911322Y559527D01*
X912179Y558869D01*
X912992Y558157D01*
X913757Y557392D01*
X914469Y556579D01*
X915127Y555722D01*
X915728Y554823D01*
X916268Y553887D01*
X916746Y552917D01*
X917160Y551919D01*
X917508Y550895D01*
X917787Y549851D01*
X917998Y548791D01*
X918139Y547719D01*
X918210Y546640D01*
X918210Y545560D01*
X54610Y545560D02*
X54539Y544481D01*
X54398Y543409D01*
X54187Y542349D01*
X53908Y541305D01*
X53560Y540281D01*
X53146Y539283D01*
X52668Y538313D01*
X52128Y537377D01*
X51527Y536478D01*
X50869Y535621D01*
X50157Y534808D01*
X49392Y534044D01*
X48579Y533331D01*
X47722Y532673D01*
X46823Y532072D01*
X45887Y531532D01*
X44917Y531054D01*
X43919Y530640D01*
X42895Y530292D01*
X41851Y530013D01*
X40791Y529802D01*
X39719Y529661D01*
X38640Y529590D01*
X37560Y529590D01*
X36481Y529661D01*
X35409Y529802D01*
X34349Y530013D01*
X33305Y530292D01*
X32281Y530640D01*
X31283Y531054D01*
X30313Y531532D01*
X29377Y532072D01*
X28478Y532673D01*
X27621Y533331D01*
X26808Y534044D01*
X26044Y534808D01*
X25331Y535621D01*
X24673Y536478D01*
X24072Y537377D01*
X23532Y538313D01*
X23054Y539283D01*
X22640Y540281D01*
X22292Y541305D01*
X22013Y542349D01*
X21802Y543409D01*
X21661Y544481D01*
X21590Y545560D01*
X21590Y546640D01*
X21661Y547719D01*
X21802Y548791D01*
X22013Y549851D01*
X22292Y550895D01*
X22640Y551919D01*
X23054Y552917D01*
X23532Y553887D01*
X24072Y554823D01*
X24673Y555722D01*
X25331Y556579D01*
X26044Y557392D01*
X26808Y558157D01*
X27621Y558869D01*
X28478Y559527D01*
X29377Y560128D01*
X30313Y560668D01*
X31283Y561146D01*
X32281Y561560D01*
X33305Y561908D01*
X34349Y562187D01*
X35409Y562398D01*
X36481Y562539D01*
X37560Y562610D01*
X38640Y562610D01*
X39719Y562539D01*
X40791Y562398D01*
X41851Y562187D01*
X42895Y561908D01*
X43919Y561560D01*
X44917Y561146D01*
X45887Y560668D01*
X46823Y560128D01*
X47722Y559527D01*
X48579Y558869D01*
X49392Y558157D01*
X50157Y557392D01*
X50869Y556579D01*
X51527Y555722D01*
X52128Y554823D01*
X52668Y553887D01*
X53146Y552917D01*
X53560Y551919D01*
X53908Y550895D01*
X54187Y549851D01*
X54398Y548791D01*
X54539Y547719D01*
X54610Y546640D01*
X54610Y545560D01*
X918210Y37560D02*
X918139Y36481D01*
X917998Y35409D01*
X917787Y34349D01*
X917508Y33305D01*
X917160Y32281D01*
X916746Y31283D01*
X916268Y30313D01*
X915728Y29377D01*
X915127Y28478D01*
X914469Y27621D01*
X913757Y26808D01*
X912992Y26044D01*
X912179Y25331D01*
X911322Y24673D01*
X910423Y24072D01*
X909487Y23532D01*
X908517Y23054D01*
X907519Y22640D01*
X906495Y22292D01*
X905451Y22013D01*
X904391Y21802D01*
X903319Y21661D01*
X902240Y21590D01*
X901160Y21590D01*
X900081Y21661D01*
X899009Y21802D01*
X897949Y22013D01*
X896905Y22292D01*
X895881Y22640D01*
X894883Y23054D01*
X893913Y23532D01*
X892977Y24072D01*
X892078Y24673D01*
X891221Y25331D01*
X890408Y26044D01*
X889644Y26808D01*
X888931Y27621D01*
X888273Y28478D01*
X887672Y29377D01*
X887132Y30313D01*
X886654Y31283D01*
X886240Y32281D01*
X885892Y33305D01*
X885613Y34349D01*
X885402Y35409D01*
X885261Y36481D01*
X885190Y37560D01*
X885190Y38640D01*
X885261Y39719D01*
X885402Y40791D01*
X885613Y41851D01*
X885892Y42895D01*
X886240Y43919D01*
X886654Y44917D01*
X887132Y45887D01*
X887672Y46823D01*
X888273Y47722D01*
X888931Y48579D01*
X889644Y49392D01*
X890408Y50157D01*
X891221Y50869D01*
X892078Y51527D01*
X892977Y52128D01*
X893913Y52668D01*
X894883Y53146D01*
X895881Y53560D01*
X896905Y53908D01*
X897949Y54187D01*
X899009Y54398D01*
X900081Y54539D01*
X901160Y54610D01*
X902240Y54610D01*
X903319Y54539D01*
X904391Y54398D01*
X905451Y54187D01*
X906495Y53908D01*
X907519Y53560D01*
X908517Y53146D01*
X909487Y52668D01*
X910423Y52128D01*
X911322Y51527D01*
X912179Y50869D01*
X912992Y50157D01*
X913757Y49392D01*
X914469Y48579D01*
X915127Y47722D01*
X915728Y46823D01*
X916268Y45887D01*
X916746Y44917D01*
X917160Y43919D01*
X917508Y42895D01*
X917787Y41851D01*
X917998Y40791D01*
X918139Y39719D01*
X918210Y38640D01*
X918210Y37560D01*
X54610Y37560D02*
X54539Y36481D01*
X54398Y35409D01*
X54187Y34349D01*
X53908Y33305D01*
X53560Y32281D01*
X53146Y31283D01*
X52668Y30313D01*
X52128Y29377D01*
X51527Y28478D01*
X50869Y27621D01*
X50157Y26808D01*
X49392Y26044D01*
X48579Y25331D01*
X47722Y24673D01*
X46823Y24072D01*
X45887Y23532D01*
X44917Y23054D01*
X43919Y22640D01*
X42895Y22292D01*
X41851Y22013D01*
X40791Y21802D01*
X39719Y21661D01*
X38640Y21590D01*
X37560Y21590D01*
X36481Y21661D01*
X35409Y21802D01*
X34349Y22013D01*
X33305Y22292D01*
X32281Y22640D01*
X31283Y23054D01*
X30313Y23532D01*
X29377Y24072D01*
X28478Y24673D01*
X27621Y25331D01*
X26808Y26044D01*
X26044Y26808D01*
X25331Y27621D01*
X24673Y28478D01*
X24072Y29377D01*
X23532Y30313D01*
X23054Y31283D01*
X22640Y32281D01*
X22292Y33305D01*
X22013Y34349D01*
X21802Y35409D01*
X21661Y36481D01*
X21590Y37560D01*
X21590Y38640D01*
X21661Y39719D01*
X21802Y40791D01*
X22013Y41851D01*
X22292Y42895D01*
X22640Y43919D01*
X23054Y44917D01*
X23532Y45887D01*
X24072Y46823D01*
X24673Y47722D01*
X25331Y48579D01*
X26044Y49392D01*
X26808Y50157D01*
X27621Y50869D01*
X28478Y51527D01*
X29377Y52128D01*
X30313Y52668D01*
X31283Y53146D01*
X32281Y53560D01*
X33305Y53908D01*
X34349Y54187D01*
X35409Y54398D01*
X36481Y54539D01*
X37560Y54610D01*
X38640Y54610D01*
X39719Y54539D01*
X40791Y54398D01*
X41851Y54187D01*
X42895Y53908D01*
X43919Y53560D01*
X44917Y53146D01*
X45887Y52668D01*
X46823Y52128D01*
X47722Y51527D01*
X48579Y50869D01*
X49392Y50157D01*
X50157Y49392D01*
X50869Y48579D01*
X51527Y47722D01*
X52128Y46823D01*
X52668Y45887D01*
X53146Y44917D01*
X53560Y43919D01*
X53908Y42895D01*
X54187Y41851D01*
X54398Y40791D01*
X54539Y39719D01*
X54610Y38640D01*
X54610Y37560D01*
M02*
