G04 EAGLE Gerber RS-274X export*
G75*
%MOMM*%
%FSLAX34Y34*%
%LPD*%
%INSoldermask Top*%
%IPPOS*%
%AMOC8*
5,1,8,0,0,1.08239X$1,22.5*%
G01*
%ADD10C,2.082800*%
%ADD11R,2.235200X2.235200*%
%ADD12C,2.235200*%
%ADD13C,1.524000*%
%ADD14R,2.616200X2.616200*%
%ADD15C,2.616200*%
%ADD16R,1.003200X1.103200*%
%ADD17R,1.003200X1.403200*%
%ADD18C,3.505200*%
%ADD19C,1.625600*%
%ADD20C,2.133600*%
%ADD21R,2.133600X2.133600*%
%ADD22C,2.743200*%
%ADD23C,0.990600*%
%ADD24C,0.959600*%


D10*
X99732Y190076D03*
X125132Y190076D03*
X150532Y190076D03*
X175932Y190076D03*
X201332Y190076D03*
X226732Y190076D03*
X252132Y190076D03*
X277532Y190076D03*
X302932Y190076D03*
X328332Y190076D03*
X353732Y190076D03*
X379132Y190076D03*
X404532Y190076D03*
X429932Y190076D03*
X455332Y190076D03*
X480732Y190076D03*
X506132Y190076D03*
X531532Y190076D03*
X556932Y190076D03*
X556932Y444076D03*
X531532Y444076D03*
X506132Y444076D03*
X480732Y444076D03*
X455332Y444076D03*
X429932Y444076D03*
X404532Y444076D03*
X379132Y444076D03*
X353732Y444076D03*
X328332Y444076D03*
X302932Y444076D03*
X277532Y444076D03*
X252132Y444076D03*
X226732Y444076D03*
X201332Y444076D03*
X175932Y444076D03*
X150532Y444076D03*
X125132Y444076D03*
X99732Y444076D03*
D11*
X891240Y237740D03*
D12*
X891240Y272740D03*
X891240Y307740D03*
X891240Y342740D03*
D10*
X737514Y344132D03*
X787400Y444500D03*
X863600Y393700D03*
X812800Y444500D03*
X736600Y444500D03*
X787375Y316916D03*
X737222Y419862D03*
X737514Y229832D03*
X737514Y191732D03*
X737514Y306032D03*
X762000Y444500D03*
X838200Y419100D03*
X736600Y393700D03*
X889000Y419100D03*
X761543Y419291D03*
X863600Y469900D03*
X711200Y50800D03*
X711200Y88900D03*
X838200Y393700D03*
X838200Y444500D03*
X749300Y50800D03*
X749300Y88900D03*
X787184Y494957D03*
X812800Y342900D03*
X787400Y469900D03*
X889000Y393700D03*
X863740Y494221D03*
X838200Y469900D03*
X812800Y469900D03*
X838111Y495135D03*
X812825Y494957D03*
X863600Y444500D03*
X736600Y469900D03*
X762000Y469900D03*
X787400Y368300D03*
X787400Y342900D03*
X761721Y495643D03*
X813194Y418871D03*
X812800Y393700D03*
X812800Y368300D03*
X787400Y419100D03*
X889000Y469900D03*
X889000Y444500D03*
X736600Y495300D03*
X786587Y51422D03*
X787400Y88900D03*
X888848Y494944D03*
X863346Y419570D03*
X762000Y393700D03*
X787400Y393700D03*
X838200Y228600D03*
X838200Y266700D03*
X838200Y304800D03*
X838200Y342900D03*
D13*
X630506Y358071D02*
X617298Y358071D01*
X617298Y332671D02*
X630506Y332671D01*
X630506Y307271D02*
X617298Y307271D01*
X617298Y281871D02*
X630506Y281871D01*
X630506Y256471D02*
X617298Y256471D01*
X617298Y231071D02*
X630506Y231071D01*
X630506Y205671D02*
X617298Y205671D01*
X617298Y180271D02*
X630506Y180271D01*
X693498Y180271D02*
X706706Y180271D01*
X706706Y205671D02*
X693498Y205671D01*
X693498Y231071D02*
X706706Y231071D01*
X706706Y256471D02*
X693498Y256471D01*
X693498Y281871D02*
X706706Y281871D01*
X706706Y307271D02*
X693498Y307271D01*
X693498Y332671D02*
X706706Y332671D01*
X706706Y358071D02*
X693498Y358071D01*
D11*
X330397Y529231D03*
D12*
X295397Y529231D03*
X260397Y529231D03*
X225397Y529231D03*
D11*
X189537Y529231D03*
D12*
X154537Y529231D03*
X119537Y529231D03*
X84537Y529231D03*
D11*
X461707Y73381D03*
D12*
X496707Y73381D03*
X531707Y73381D03*
X566707Y73381D03*
D10*
X114300Y302260D03*
X190500Y302260D03*
X190500Y378460D03*
X114300Y378460D03*
X114300Y327660D03*
X190500Y327660D03*
X190500Y353060D03*
X114300Y353060D03*
X787400Y546100D03*
X736600Y546100D03*
X762000Y546100D03*
D14*
X434237Y529231D03*
D15*
X399237Y529231D03*
X364237Y529231D03*
D14*
X251307Y73381D03*
D15*
X286307Y73381D03*
X321307Y73381D03*
D16*
X400274Y306414D03*
X409774Y285414D03*
X390774Y285414D03*
D17*
X390258Y268236D03*
X408258Y268236D03*
X390004Y321068D03*
X408004Y321068D03*
D16*
X362428Y306414D03*
X371928Y285414D03*
X352928Y285414D03*
D17*
X353428Y268744D03*
X371428Y268744D03*
X371936Y320814D03*
X353936Y320814D03*
D16*
X324836Y306414D03*
X334336Y285414D03*
X315336Y285414D03*
D17*
X316090Y268490D03*
X334090Y268490D03*
X332820Y321068D03*
X314820Y321068D03*
D16*
X438882Y306414D03*
X448382Y285414D03*
X429382Y285414D03*
D17*
X429882Y268236D03*
X447882Y268236D03*
X428104Y321068D03*
X446104Y321068D03*
D16*
X476728Y306414D03*
X486228Y285414D03*
X467228Y285414D03*
D17*
X467728Y268744D03*
X485728Y268744D03*
X467728Y319544D03*
X485728Y319544D03*
D11*
X609537Y529231D03*
D12*
X574537Y529231D03*
X539537Y529231D03*
X504537Y529231D03*
X469537Y529231D03*
D18*
X901700Y546100D03*
X38100Y546100D03*
X901700Y38100D03*
X38100Y38100D03*
D19*
X635508Y63500D02*
X649732Y63500D01*
X649732Y88900D02*
X635508Y88900D01*
X635508Y114300D02*
X649732Y114300D01*
D14*
X356707Y73381D03*
D15*
X391707Y73381D03*
X426707Y73381D03*
D20*
X660838Y410571D03*
D21*
X660838Y460571D03*
D10*
X711200Y127000D03*
X749300Y127000D03*
X787400Y127000D03*
X737514Y267932D03*
X812800Y546100D03*
X838200Y546100D03*
X787400Y292100D03*
X812800Y292100D03*
X787400Y266700D03*
X787400Y241300D03*
X812800Y241300D03*
X787400Y215900D03*
X812800Y266700D03*
X812800Y190500D03*
X787400Y190500D03*
X812800Y215900D03*
X838200Y190500D03*
X838200Y165100D03*
X863600Y190500D03*
X863600Y165100D03*
X889000Y190500D03*
X889000Y139700D03*
X889000Y165100D03*
X863600Y114300D03*
X838200Y114300D03*
X838200Y139700D03*
X863600Y139700D03*
X889000Y114300D03*
X889000Y88900D03*
X838200Y88900D03*
X863600Y88900D03*
X812800Y317500D03*
D22*
X92200Y94300D02*
X92200Y68900D01*
X187450Y68900D02*
X187450Y94300D01*
D23*
X292100Y406400D03*
X381000Y406400D03*
X457200Y406400D03*
X355600Y215900D03*
X533400Y406400D03*
X203200Y228600D03*
X152400Y228600D03*
X165100Y76200D03*
X76200Y25400D03*
X482600Y127000D03*
X317500Y355600D03*
X495300Y342900D03*
X571500Y393700D03*
X88900Y558800D03*
X279400Y558800D03*
X266700Y482600D03*
X647700Y279400D03*
D24*
X668909Y288735D03*
X668909Y200089D03*
X407480Y376809D03*
X457137Y277495D03*
X438150Y277495D03*
X167958Y305245D03*
X305245Y287719D03*
X582740Y249746D03*
X373888Y306705D03*
X344678Y259969D03*
X562293Y232220D03*
X594424Y360744D03*
X334455Y341757D03*
X65723Y376809D03*
X86170Y419164D03*
X338836Y332994D03*
X359283Y332994D03*
X387033Y332994D03*
X455676Y331534D03*
X427927Y332994D03*
M02*
